<?xml version="1.0" encoding="UTF-8"?>
<svg version="1.1" xmlns="http://www.w3.org/2000/svg" width="300" height="150">
<path d="M0 0 C3.2630121 1.0876707 3.87839928 1.75066713 6 4.3125 C9.0853242 7.95344402 12.26205661 11.49489047 15.5 15 C19.13573579 18.94801887 22.73625488 22.91839289 26.2265625 26.99609375 C27.59786348 28.54560345 29.01971061 30.05046379 30.4609375 31.53515625 C31.29882812 32.41042969 32.13671875 33.28570312 33 34.1875 C34.175625 35.38439453 34.175625 35.38439453 35.375 36.60546875 C37 39 37 39 36.78808594 41.13793945 C35.74865937 44.91278382 34.41396524 48.5324129 33.015625 52.1875 C32.71815369 52.96762451 32.42068237 53.74774902 32.11419678 54.55151367 C31.48439662 56.1963735 30.85220429 57.84031914 30.21777344 59.48339844 C29.2550187 61.98694935 28.31104673 64.49708788 27.3671875 67.0078125 C26.7511516 68.60981831 26.13400044 70.2113958 25.515625 71.8125 C25.23833557 72.55846436 24.96104614 73.30442871 24.675354 74.07299805 C21.56049819 82.00106231 16.21754337 85.82678379 9 89.875 C8.30132812 90.29007812 7.60265625 90.70515625 6.8828125 91.1328125 C6.19960937 91.51953125 5.51640625 91.90625 4.8125 92.3046875 C3.89404297 92.8303833 3.89404297 92.8303833 2.95703125 93.36669922 C-2.07479326 94.99501169 -7.33433372 91.86956714 -11.7890625 89.609375 C-22.01336939 84.10923949 -24.77228393 75.76871653 -28.375 65.25 C-29.00273001 63.54889711 -29.63551859 61.84965205 -30.2734375 60.15234375 C-31.6783566 56.3880429 -33.0283109 52.6081981 -34.34835815 48.81341553 C-34.91758109 47.22935871 -35.54856504 45.66777061 -36.18945312 44.11132812 C-37 42 -37 42 -36.8828125 39.953125 C-35.67978059 37.29154999 -33.99745408 35.75014316 -31.875 33.75 C-27.0269422 29.06328802 -22.59438373 24.14434525 -18.3046875 18.9453125 C-17.77101563 18.30335937 -17.23734375 17.66140625 -16.6875 17 C-16.21699219 16.4225 -15.74648438 15.845 -15.26171875 15.25 C-14 14 -14 14 -12 14 C-11.66355469 13.17242187 -11.66355469 13.17242187 -11.3203125 12.328125 C-9.59614817 9.28788256 -7.37484178 7.18574327 -4.875 4.75 C-3.96492188 3.85796875 -3.05484375 2.9659375 -2.1171875 2.046875 C-1.41851562 1.37140625 -0.71984375 0.6959375 0 0 Z M0 16 C-1.76025263 24.14023476 -3.04516698 32.34735764 -4.28710938 40.57885742 C-4.6270517 42.82606289 -4.97351015 45.07220357 -5.3203125 47.31835938 C-5.53945619 48.76035689 -5.75821987 50.20241222 -5.9765625 51.64453125 C-6.17330566 52.93721924 -6.37004883 54.22990723 -6.57275391 55.56176758 C-6.9308188 58.44326922 -7.19749425 61.10627988 -7 64 C-5.74207468 65.64806974 -5.74207468 65.64806974 -4 66.8125 C-3.01 67.534375 -2.02 68.25625 -1 69 C2.3592858 67.81971039 4.81918053 66.86803727 7 64 C7.24093209 61.65493009 7.24093209 61.65493009 6.84765625 58.984375 C6.67000732 57.38045898 6.67000732 57.38045898 6.48876953 55.74414062 C6.32747559 54.50857422 6.16618164 53.27300781 6 52 C5.86498077 50.95187134 5.86498077 50.95187134 5.72723389 49.88256836 C5.00684898 44.33219579 4.22647818 38.79096573 3.4375 33.25 C3.20086415 31.57035582 2.96453385 29.89066857 2.72851562 28.2109375 C2.15585989 24.14012055 1.57909062 20.06990634 1 16 C0.67 16 0.34 16 0 16 Z M15 30 C15.10699219 31.00417969 15.21398437 32.00835937 15.32421875 33.04296875 C16.1877102 42.34694611 15.54625624 49.93047778 13 59 C12.67915306 60.72763736 12.3656703 62.45667321 12.0625 64.1875 C11 68 11 68 9.10546875 69.13671875 C8.41066406 69.42160156 7.71585938 69.70648438 7 70 C4.14670688 71.51591299 4.14670688 71.51591299 2 74 C1.5654645 76.80033987 1.76186276 79.14235311 2 82 C4.06405155 79.5089033 5.92044489 77.14253623 7.5 74.3125 C9.17871229 71.72448522 10.27934513 71.27530697 13 70 C15.48635453 67.09120058 16.98105849 64.0832399 18.48046875 60.578125 C18.92197266 59.55332031 19.36347656 58.52851562 19.81835938 57.47265625 C20.27017578 56.40917969 20.72199219 55.34570312 21.1875 54.25 C21.88262695 52.63158203 21.88262695 52.63158203 22.59179688 50.98046875 C23.73267942 48.32233003 24.86854872 45.66216363 26 43 C22.61227103 38.30840284 19.21814817 33.9700218 15 30 Z M-19.9375 34.75 C-20.64777344 35.44609375 -21.35804687 36.1421875 -22.08984375 36.859375 C-24.65305733 39.60716468 -24.65305733 39.60716468 -26 43 C-25.10766221 45.66799986 -24.15594684 47.98771399 -22.9375 50.5 C-22.27768031 51.92663717 -21.61883576 53.35372573 -20.9609375 54.78125 C-20.62932617 55.48894531 -20.29771484 56.19664063 -19.95605469 56.92578125 C-18.57635058 59.91913316 -17.31783913 62.95235587 -16.0625 66 C-15.66160156 66.969375 -15.26070312 67.93875 -14.84765625 68.9375 C-14.56792969 69.618125 -14.28820313 70.29875 -14 71 C-13.67 70.34 -13.34 69.68 -13 69 C-8.01842111 72.65315785 -6.20287279 75.27253075 -4 81 C-3.34 81.33 -2.68 81.66 -2 82 C-1.56648387 78.91119755 -1.30518501 76.98148221 -2 74 C-4.31319745 71.1745191 -6.93016447 68.97258508 -10 67 C-10.66 67 -11.32 67 -12 67 C-11.938125 66.21625 -11.87625 65.4325 -11.8125 64.625 C-11.97983284 61.38989836 -12.3959535 59.79839073 -13.5 56.875 C-16.20546431 48.64429169 -15.24283529 39.55527419 -15 31 C-17.01607212 31 -18.61187726 33.436363 -19.9375 34.75 Z " fill="#FFFFFF" transform="translate(77,28)"/>
<path d="M0 0 C1.00289062 -0.03738281 2.00578125 -0.07476562 3.0390625 -0.11328125 C10.54509881 -0.20287585 10.54509881 -0.20287585 14.328125 2.8984375 C14.96234375 3.71570313 15.5965625 4.53296875 16.25 5.375 C18.47468387 5.60693174 18.47468387 5.60693174 20.25 3.4375 C20.91 2.756875 21.57 2.07625 22.25 1.375 C25.6255268 -0.3127634 29.41623711 0.19040201 33.125 0.1875 C33.94097656 0.17525391 34.75695312 0.16300781 35.59765625 0.15039062 C36.78294922 0.14749023 36.78294922 0.14749023 37.9921875 0.14453125 C38.7126123 0.14042236 39.43303711 0.13631348 40.17529297 0.13208008 C42.59522676 0.41542135 44.18347311 1.0973932 46.25 2.375 C49.34496354 8.56492708 46.68277448 16.98423739 45.296875 23.359375 C43.90884 27.35774449 42.06590903 30.29330767 38.37573242 32.49145508 C34.76759265 33.99115162 31.17357195 33.78458864 27.3125 33.8125 C26.51392578 33.84537109 25.71535156 33.87824219 24.89257812 33.91210938 C20.57264259 33.95147913 18.78053051 33.7777084 15.234375 31.0859375 C12.8392794 27.81389745 12.4856095 25.38036151 12.25 21.375 C11.816875 21.849375 11.38375 22.32375 10.9375 22.8125 C7.6692746 25.83863463 4.29038442 25.48296112 0.0625 25.4375 C-1.56751953 25.42396484 -1.56751953 25.42396484 -3.23046875 25.41015625 C-4.06191406 25.39855469 -4.89335937 25.38695313 -5.75 25.375 C-5.9665625 27.0765625 -5.9665625 27.0765625 -6.1875 28.8125 C-6.75 32.375 -6.75 32.375 -7.75 33.375 C-9.43608966 33.44705511 -11.12500659 33.45886068 -12.8125 33.4375 C-13.73160156 33.42847656 -14.65070313 33.41945312 -15.59765625 33.41015625 C-16.30792969 33.39855469 -17.01820312 33.38695312 -17.75 33.375 C-16.68346821 25.55844463 -15.29790237 17.84575819 -13.6875 10.125 C-13.5131543 9.27897217 -13.33880859 8.43294434 -13.15917969 7.5612793 C-11.25841007 -1.39962255 -8.46731673 0.11789935 0 0 Z M-2.75 9.375 C-3.08 11.685 -3.41 13.995 -3.75 16.375 C-1.44 16.375 0.87 16.375 3.25 16.375 C3.91 14.395 4.57 12.415 5.25 10.375 C4.06575674 8.95922523 4.06575674 8.95922523 0.6875 9.3125 C-1.0140625 9.3434375 -1.0140625 9.3434375 -2.75 9.375 Z M26.25 11.375 C25.52778945 14.2264812 25.52778945 14.2264812 25.0625 17.4375 C24.88332031 18.52160156 24.70414063 19.60570312 24.51953125 20.72265625 C24.43058594 21.59792969 24.34164062 22.47320312 24.25 23.375 C25.23267859 24.58061184 25.23267859 24.58061184 27.09765625 24.47265625 C29.1484375 24.44010417 31.19921875 24.40755208 33.25 24.375 C35.155247 19.27165983 36.67589023 14.91157294 36.25 9.375 C30.66335154 8.77078469 30.66335154 8.77078469 26.25 11.375 Z M13.25 18.375 C14.25 20.375 14.25 20.375 14.25 20.375 Z " fill="#FFFFFF" transform="translate(133.75,81.625)"/>
<path d="M0 0 C5.28 0 10.56 0 16 0 C17.36529953 4.0958986 18.25408212 6.79490331 18.625 10.875 C18.69976562 11.65617187 18.77453125 12.43734375 18.8515625 13.2421875 C18.92503906 14.11230469 18.92503906 14.11230469 19 15 C21.7 10.06666667 21.7 10.06666667 23 0 C35.54 0 48.08 0 61 0 C60 8 60 8 59 9 C56.32941149 9.14115161 53.67567762 9.04247107 51 9 C50.896875 10.19625 50.79375 11.3925 50.6875 12.625 C48.74416517 30.25583483 48.74416517 30.25583483 46 33 C44.31391034 33.07205511 42.62499341 33.08386068 40.9375 33.0625 C40.01839844 33.05347656 39.09929687 33.04445312 38.15234375 33.03515625 C37.44207031 33.02355469 36.73179687 33.01195312 36 33 C36.79263616 25.23216563 38.41889487 17.6370361 40 10 C37.69 9.67 35.38 9.34 33 9 C32.73445313 10.0621875 32.46890625 11.124375 32.1953125 12.21875 C30.46354167 19.14583333 28.73177083 26.07291667 27 33 C24.35409986 33.02684679 21.70846904 33.04676357 19.0625 33.0625 C18.30775391 33.07087891 17.55300781 33.07925781 16.77539062 33.08789062 C14.85005687 33.09652441 12.92464419 33.05224333 11 33 C8.61062881 30.61062881 8.95008791 25.14125682 8.5 21.90625 C8.30757295 19.11524717 8.30757295 19.11524717 7 18 C6.01 22.95 5.02 27.9 4 33 C0.7 33 -2.6 33 -6 33 C-5.63085563 22.55321431 -4.74413437 9.48826875 0 0 Z " fill="#FFFFFF" transform="translate(199,82)"/>
<path d="M0 0 C4.10403363 -0.08694042 8.20783129 -0.14037149 12.3125 -0.1875 C13.47974609 -0.21263672 14.64699219 -0.23777344 15.84960938 -0.26367188 C16.96787109 -0.27333984 18.08613281 -0.28300781 19.23828125 -0.29296875 C20.26993408 -0.3086792 21.30158691 -0.32438965 22.36450195 -0.34057617 C25 0 25 0 26.83520508 1.39233398 C29.11682117 4.54145199 28.46666026 8.29741924 28 12 C26.95989295 15.54036439 25.64346249 18.35653751 23 21 C23.33 21.33 23.66 21.66 24 22 C24.1453415 26.43291584 24.08169281 29.67322878 23 34 C19.37 34 15.74 34 12 34 C12.33 31.03 12.66 28.06 13 25 C10.69 25.33 8.38 25.66 6 26 C5.01 28.64 4.02 31.28 3 34 C0.03 34 -2.94 34 -6 34 C-7.5493473 30.9013054 -6.31044637 28.04657492 -5.56640625 24.8046875 C-5.33122536 23.74352219 -5.33122536 23.74352219 -5.09129333 22.66091919 C-4.58810296 20.39746041 -4.07542248 18.13627116 -3.5625 15.875 C-3.22007686 14.34258772 -2.87827205 12.81003714 -2.53710938 11.27734375 C-1.69857774 7.5165856 -0.85152776 3.75783588 0 0 Z M9 9 C8.67 10.98 8.34 12.96 8 15 C10.64 15 13.28 15 16 15 C16.38218767 13.34385343 16.71395102 11.67542976 17 10 C15.81575674 8.58422523 15.81575674 8.58422523 12.4375 8.9375 C10.7359375 8.9684375 10.7359375 8.9684375 9 9 Z " fill="#FFFFFF" transform="translate(172,42)"/>
<path d="M0 0 C8.25 0 16.5 0 25 0 C24 7 24 7 23 8 C20.65012738 8.23527773 18.29443961 8.41386417 15.9375 8.5625 C14.00197266 8.68818359 14.00197266 8.68818359 12.02734375 8.81640625 C11.02832031 8.87699219 10.02929688 8.93757813 9 9 C8.67 9.99 8.34 10.98 8 12 C11.96 12 15.92 12 20 12 C21 17 21 17 19 21 C14.71 21 10.42 21 6 21 C5.67 22.32 5.34 23.64 5 25 C9.62 25 14.24 25 19 25 C18.67 27.97 18.34 30.94 18 34 C9.75 34 1.5 34 -7 34 C-5.87388629 23.86497658 -5.87388629 23.86497658 -4.84375 19.16015625 C-4.62589844 18.16048828 -4.40804687 17.16082031 -4.18359375 16.13085938 C-3.95800781 15.11830078 -3.73242188 14.10574219 -3.5 13.0625 C-3.27441406 12.02287109 -3.04882812 10.98324219 -2.81640625 9.91210938 C-1.13649644 2.27299289 -1.13649644 2.27299289 0 0 Z " fill="#FFFFFF" transform="translate(205,42)"/>
<path d="M0 0 C8.25 0 16.5 0 25 0 C24 7 24 7 23 8 C20.64686445 8.07271741 18.29166332 8.08370868 15.9375 8.0625 C14.64714844 8.05347656 13.35679687 8.04445313 12.02734375 8.03515625 C11.02832031 8.02355469 10.02929688 8.01195312 9 8 C8.67 9.65 8.34 11.3 8 13 C12.29 13 16.58 13 21 13 C20.67 15.97 20.34 18.94 20 22 C15.38 22 10.76 22 6 22 C5.34 25.96 4.68 29.92 4 34 C0.7 34 -2.6 34 -6 34 C-7.48493936 31.03012129 -6.52757204 29.03417636 -5.8203125 25.8203125 C-5.55089844 24.58152344 -5.28148438 23.34273437 -5.00390625 22.06640625 C-4.71103636 20.75258212 -4.41806659 19.43878026 -4.125 18.125 C-3.83923275 16.81914398 -3.55406926 15.51315567 -3.26953125 14.20703125 C-2.22877651 9.45704634 -1.1794165 4.717666 0 0 Z " fill="#FFFFFF" transform="translate(131,42)"/>
<path d="M0 0 C3.63 0 7.26 0 11 0 C10.21074675 4.00048977 9.41867993 8.0003882 8.625 12 C8.40328125 13.12535156 8.1815625 14.25070313 7.953125 15.41015625 C6.77844695 21.31809583 5.52812594 27.17312727 4 33 C0.7 33 -2.6 33 -6 33 C-5.39479468 25.44536808 -4.11472327 18.26042013 -2.4375 10.875 C-2.20353516 9.823125 -1.96957031 8.77125 -1.72851562 7.6875 C-1.15751903 5.12384184 -0.57949451 2.56175065 0 0 Z " fill="#FFFFFF" transform="translate(185,82)"/>
<path d="M0 0 C3.3 0 6.6 0 10 0 C9.39097524 7.52283994 8.14623362 14.70148394 6.5 22.0625 C6.27441406 23.10599609 6.04882812 24.14949219 5.81640625 25.22460938 C4.13375235 32.86624765 4.13375235 32.86624765 3 34 C-0.00003445 34.14177857 -2.99757235 34.04228771 -6 34 C-5.43223344 26.3055241 -4.07139916 18.90832778 -2.4375 11.375 C-2.20353516 10.27542969 -1.96957031 9.17585938 -1.72851562 8.04296875 C-1.15712206 5.36091733 -0.58087187 2.6800116 0 0 Z " fill="#FFFFFF" transform="translate(158,42)"/>
</svg>
